<!DOCTYPE svg PUBLIC "-//W3C//DTD SVG 1.1//EN" "http://www.w3.org/Graphics/SVG/1.1/DTD/svg11.dtd">
<!-- Uploaded to: SVG Repo, www.svgrepo.com, Transformed by: SVG Repo Mixer Tools -->
<svg fill="#391d2c" width="232px" height="232px" viewBox="0 0 24.00 24.00" id="coffee-beans" data-name="Flat Line" xmlns="http://www.w3.org/2000/svg" class="icon flat-line" stroke="#391d2c" transform="matrix(1, 0, 0, 1, 0, 0)rotate(45)">
<g id="SVGRepo_bgCarrier" stroke-width="0"/>
<g id="SVGRepo_tracerCarrier" stroke-linecap="round" stroke-linejoin="round" stroke="#CCCCCC" stroke-width="4.8">
<ellipse id="secondary" cx="9.57" cy="14.44" rx="5" ry="7" transform="translate(-5.94 6.72) rotate(-30)" style="fill: #000000391d2c; stroke-width:0.8640000000000001;"/>
<path id="primary" d="M13.92,11.68c.81-2.37-.45-3.91,4-8.18" style="fill: none; stroke: #000000; stroke-linecap: round; stroke-linejoin: round; stroke-width:0.8640000000000001;"/>
<path id="primary-2" data-name="primary" d="M15.19,15.53a8.65,8.65,0,0,0,3.57-3.47c1.94-3.35,1.56-7.18-.83-8.56S12,3.71,10.1,7.06A10.14,10.14,0,0,0,9.63,8" style="fill: none; stroke: #000000; stroke-linecap: round; stroke-linejoin: round; stroke-width:0.8640000000000001;"/>
<path id="primary-3" data-name="primary" d="M13,20.44C7.06,15,12.48,14.51,6.07,8.38" style="fill: none; stroke: #000000; stroke-linecap: round; stroke-linejoin: round; stroke-width:0.8640000000000001;"/>
<ellipse id="primary-4" data-name="primary" cx="9.57" cy="14.44" rx="5" ry="7" transform="translate(-5.94 6.72) rotate(-30)" style="fill: none; stroke: #000000; stroke-linecap: round; stroke-linejoin: round; stroke-width:0.8640000000000001;"/>
</g>
<g id="SVGRepo_iconCarrier">
<ellipse id="secondary" cx="9.57" cy="14.44" rx="5" ry="7" transform="translate(-5.94 6.72) rotate(-30)" style="fill: #000000391d2c; stroke-width:0.984;"/>
<path id="primary" d="M13.92,11.68c.81-2.37-.45-3.91,4-8.18" style="fill: none; stroke: #000000; stroke-linecap: round; stroke-linejoin: round; stroke-width:0.984;"/>
<path id="primary-2" data-name="primary" d="M15.19,15.53a8.65,8.65,0,0,0,3.57-3.47c1.94-3.35,1.56-7.18-.83-8.56S12,3.71,10.1,7.06A10.14,10.14,0,0,0,9.63,8" style="fill: none; stroke: #000000; stroke-linecap: round; stroke-linejoin: round; stroke-width:0.984;"/>
<path id="primary-3" data-name="primary" d="M13,20.44C7.06,15,12.48,14.51,6.07,8.38" style="fill: none; stroke: #000000; stroke-linecap: round; stroke-linejoin: round; stroke-width:0.984;"/>
<ellipse id="primary-4" data-name="primary" cx="9.57" cy="14.44" rx="5" ry="7" transform="translate(-5.94 6.72) rotate(-30)" style="fill: none; stroke: #000000; stroke-linecap: round; stroke-linejoin: round; stroke-width:0.984;"/>
</g>
</svg>